<?xml version="1.0" encoding="UTF-8"?>
<svg id="Layer_2" xmlns="http://www.w3.org/2000/svg" viewBox="0 0 279.2 342.72">
  <defs>
    <style>
      .cls-1, .cls-2, .cls-3 {
        stroke: #231f20;
        stroke-miterlimit: 10;
      }

      .cls-2 {
        fill: #fffffa;
      }

      .cls-3 {
        fill: none;
      }
    </style>
  </defs>
  <g id="Layer_1-2" data-name="Layer_1">
    <g>
      <path class="cls-2" d="M72.31,169.64l-29.14,72.86c.07.63.1,1.27.1,1.92v78.62c0,10.59-8.59,19.18-19.18,19.18h-4.41c-10.59,0-19.18-8.59-19.18-19.18v-78.62c0-2.82.61-5.5,1.71-7.92-.44-3.19-.08-6.54,1.2-9.75l29.2-72.99c3.93-9.84,15.09-14.62,24.93-10.69l4.09,1.64c9.83,3.93,14.62,15.09,10.68,24.93Z"/>
      <polygon class="cls-2" points="231.49 183.98 231.76 180.06 132.43 180.06 132.43 142.01 234.33 142.01 240.29 53.96 268.6 53.96 278.66 183.98 231.49 183.98"/>
      <g>
        <path class="cls-2" d="M87.14,249.87c-5.41,44.08-3.68,80.25,3.98,81.22,7.66.97,18.38-33.61,24.18-77.64l-28.15-3.58Z"/>
        <g>
          <path class="cls-2" d="M103.52,254.04s57.28,116.01,52.55,55.92l-4.73-60.09-47.82,4.17Z"/>
          <g>
            <circle class="cls-1" cx="64.59" cy="27.23" r="26.73"/>
            <circle class="cls-1" cx="171.67" cy="27.23" r="26.73"/>
            <polygon class="cls-2" points="31.18 141.69 205.55 141.69 118.36 297.04 31.18 141.69"/>
            <circle class="cls-2" cx="118.36" cy="89.81" r="80.5"/>
            <g>
              <circle class="cls-2" cx="85.35" cy="65.12" r="20.44"/>
              <circle class="cls-1" cx="85.35" cy="65.12" r="5.97"/>
            </g>
            <g>
              <circle class="cls-2" cx="148.55" cy="65.12" r="23.11"/>
              <circle class="cls-1" cx="148.55" cy="65.12" r="6.13"/>
            </g>
            <line class="cls-3" x1="198.87" y1="303.64" x2="198.4" y2="303.64"/>
            <line class="cls-3" x1="137.86" y1="114.97" x2="109.56" y2="114.97"/>
            <path class="cls-3" d="M124.72,152.76c14.45-2.6,26.01-13.94,29.49-28.58,1.12-4.72-2.58-9.22-7.43-9.22h-8.91"/>
            <path class="cls-3" d="M103.52,150.1c4.54,2.08,9.56,3.23,14.85,3.23,2.17,0,4.29-.19,6.35-.57"/>
            <path class="cls-3" d="M109.56,114.97h-19.6c-4.85,0-8.55,4.5-7.43,9.22,2.76,11.63,10.63,21.18,20.99,25.92"/>
          </g>
        </g>
      </g>
    </g>
  </g>
</svg>