<?xml version="1.0" encoding="UTF-8"?>
<svg id="Layer_2" xmlns="http://www.w3.org/2000/svg" viewBox="0 0 377.86 98.08">
  <defs>
    <style>
      .cls-1 {
        fill: #489bd5;
      }

      .cls-1, .cls-2, .cls-3, .cls-4 {
        stroke-miterlimit: 10;
      }

      .cls-1, .cls-3, .cls-4 {
        stroke: #231f20;
      }

      .cls-2 {
        stroke: #2e3192;
        stroke-width: 5px;
      }

      .cls-3 {
        fill: #fff;
      }

      .cls-4 {
        fill: #f7ec24;
      }
    </style>
  </defs>
  <g id="Layer_3">
    <g>
      <rect class="cls-2" x="2.5" y="2.5" width="372.86" height="93.08"/>
      <path class="cls-4" d="M43.09,49.04l28.03,25.76c-7.21,7.84-17.38,12.31-28.03,12.31-20.89,0-38.07-17.19-38.07-38.07S22.2,10.97,43.09,10.97c9.36,0,18.39,3.45,25.37,9.68l-25.37,28.39Z"/>
      <circle class="cls-3" cx="96.03" cy="50.75" r="14.33"/>
      <circle class="cls-3" cx="150.05" cy="51.71" r="13.36"/>
      <circle class="cls-3" cx="202.3" cy="51.71" r="13.36"/>
      <circle class="cls-3" cx="251.39" cy="51.71" r="13.36"/>
      <g>
        <path class="cls-1" d="M323.02,9.2c-21.3,0-38.56,27.53-38.56,61.48,0,4.59.33,9.06.92,13.37h2.05l6.24-3.47,6.24,3.47h1l6.24-3.47,6.24,3.47h.73l6.24-3.47,6.24,3.47,6.24-3.47,6.24,3.47,6.24-3.47,6.24,3.47h.65l3.85-3.47,3.85,3.47h.79c.6-4.3.92-8.77.92-13.37,0-33.96-17.27-61.48-38.56-61.48Z"/>
        <rect class="cls-3" x="300.19" y="27.21" width="15.21" height="13.83" rx="4.35" ry="4.35"/>
        <rect class="cls-3" x="331.09" y="27.21" width="15.21" height="13.83" rx="4.35" ry="4.35"/>
        <path class="cls-3" d="M302.95,64.09c.64-1.26,17.46-25.75,38.53,0,0,0,9.29,12.16-4.18,4.53s-31.14-.24-31.14-.24c0,0-7.97,5.01-3.21-4.29Z"/>
      </g>
    </g>
  </g>
</svg>